<svg 
 id="bottom-start-photo" 
 xmlns="http://www.w3.org/2000/svg"
 xmlns:xlink="http://www.w3.org/1999/xlink"
 width="816px" height="816px">
<path fill-rule="evenodd" fill="#000013"
 d="M31.1000,-0.000 L31.1000,183.1000 L199.1000,183.1000 L199.1000,115.1000 L99.1000,115.1000 L99.1000,99.1000 L99.1000,83.1000 L99.1000,-0.000 L131.1000,-0.000 L131.1000,83.1000 L199.1000,83.1000 L199.1000,-0.000 L231.1000,-0.000 L231.1000,183.1000 L300.000,183.1000 L300.000,-0.000 L332.000,-0.000 L332.000,83.1000 L600.000,83.1000 L616.000,83.1000 L632.000,83.1000 L632.000,183.1000 L700.000,183.1000 L716.000,183.1000 L732.000,183.1000 L732.000,483.1000 L816.000,483.1000 L816.000,515.1000 L632.000,515.1000 L632.000,584.000 L816.000,584.000 L816.000,616.000 L732.000,616.000 L732.000,684.000 L816.000,684.000 L816.000,716.000 L700.000,716.000 L700.000,700.000 L700.000,684.000 L700.000,616.000 L632.000,616.000 L632.000,784.000 L816.000,784.000 L816.000,816.000 L600.000,816.000 L600.000,800.000 L600.000,784.000 L600.000,716.000 L499.1000,716.000 L499.1000,684.000 L499.1000,616.000 L199.1000,616.000 L199.1000,600.000 L199.1000,584.000 L199.1000,316.000 L99.1000,316.000 L99.1000,300.000 L99.1000,283.1000 L99.1000,215.1000 L-0.000,215.1000 L-0.000,199.1000 L-0.000,183.1000 L-0.000,-0.000 L31.1000,-0.000 ZM632.000,483.1000 L700.000,483.1000 L700.000,215.1000 L632.000,215.1000 L632.000,483.1000 ZM532.000,183.1000 L532.000,684.000 L600.000,684.000 L600.000,115.1000 L332.000,115.1000 L332.000,183.1000 L499.1000,183.1000 L532.000,183.1000 ZM499.1000,316.000 L332.000,316.000 L332.000,483.1000 L499.1000,483.1000 L499.1000,316.000 ZM231.1000,584.000 L499.1000,584.000 L499.1000,515.1000 L300.000,515.1000 L300.000,499.1000 L300.000,483.1000 L300.000,316.000 L231.1000,316.000 L231.1000,584.000 ZM131.1000,283.1000 L499.1000,283.1000 L499.1000,215.1000 L131.1000,215.1000 L131.1000,283.1000 Z"/>
</svg>