<svg 
 id="bottom-end-photo" 
 xmlns="http://www.w3.org/2000/svg"
 xmlns:xlink="http://www.w3.org/1999/xlink"
 width="816px" height="816px">
<path fill-rule="evenodd"  fill="#d0d3d2"
 d="M784.000,-0.000 L784.000,183.1000 L616.000,183.1000 L616.000,115.1000 L716.000,115.1000 L716.000,99.1000 L716.000,83.1000 L716.000,-0.000 L684.000,-0.000 L684.000,83.1000 L616.000,83.1000 L616.000,-0.000 L584.000,-0.000 L584.000,183.1000 L515.1000,183.1000 L515.1000,-0.000 L483.1000,-0.000 L483.1000,83.1000 L215.1000,83.1000 L199.1000,83.1000 L183.1000,83.1000 L183.1000,183.1000 L115.1000,183.1000 L99.1000,183.1000 L83.1000,183.1000 L83.1000,483.1000 L-0.000,483.1000 L-0.000,515.1000 L183.1000,515.1000 L183.1000,584.000 L-0.000,584.000 L-0.000,616.000 L83.1000,616.000 L83.1000,684.000 L-0.000,684.000 L-0.000,716.000 L115.1000,716.000 L115.1000,700.000 L115.1000,684.000 L115.1000,616.000 L183.1000,616.000 L183.1000,784.000 L-0.000,784.000 L-0.000,816.000 L215.1000,816.000 L215.1000,800.000 L215.1000,784.000 L215.1000,716.000 L316.000,716.000 L316.000,684.000 L316.000,616.000 L616.000,616.000 L616.000,600.000 L616.000,584.000 L616.000,316.000 L716.000,316.000 L716.000,300.000 L716.000,283.1000 L716.000,215.1000 L816.000,215.1000 L816.000,199.1000 L816.000,183.1000 L816.000,-0.000 L784.000,-0.000 ZM183.1000,483.1000 L115.1000,483.1000 L115.1000,215.1000 L183.1000,215.1000 L183.1000,483.1000 ZM283.1000,183.1000 L283.1000,684.000 L215.1000,684.000 L215.1000,115.1000 L483.1000,115.1000 L483.1000,183.1000 L316.000,183.1000 L283.1000,183.1000 ZM316.000,316.000 L483.1000,316.000 L483.1000,483.1000 L316.000,483.1000 L316.000,316.000 ZM584.000,584.000 L316.000,584.000 L316.000,515.1000 L515.1000,515.1000 L515.1000,499.1000 L515.1000,483.1000 L515.1000,316.000 L584.000,316.000 L584.000,584.000 ZM684.000,283.1000 L316.000,283.1000 L316.000,215.1000 L684.000,215.1000 L684.000,283.1000 Z"/>
</svg>