<svg 
 id="top-end-photo" 
 xmlns="http://www.w3.org/2000/svg"
 xmlns:xlink="http://www.w3.org/1999/xlink"
 width="816px" height="816px">
<path fill-rule="evenodd" fill="#d0d3d2"
 d="M784.000,816.000 L784.000,632.000 L616.000,632.000 L616.000,700.000 L716.000,700.000 L716.000,716.000 L716.000,732.000 L716.000,816.000 L684.000,816.000 L684.000,732.000 L616.000,732.000 L616.000,816.000 L584.000,816.000 L584.000,632.000 L515.1000,632.000 L515.1000,816.000 L483.1000,816.000 L483.1000,732.000 L215.1000,732.000 L199.1000,732.000 L183.1000,732.000 L183.1000,632.000 L115.1000,632.000 L99.1000,632.000 L83.1000,632.000 L83.1000,332.000 L-0.000,332.000 L-0.000,300.000 L183.1000,300.000 L183.1000,231.1000 L-0.000,231.1000 L-0.000,199.1000 L83.1000,199.1000 L83.1000,131.1000 L-0.000,131.1000 L-0.000,99.1000 L115.1000,99.1000 L115.1000,115.1000 L115.1000,131.1000 L115.1000,199.1000 L183.1000,199.1000 L183.1000,31.1000 L-0.000,31.1000 L-0.000,-0.000 L215.1000,-0.000 L215.1000,15.1000 L215.1000,31.1000 L215.1000,99.1000 L316.000,99.1000 L316.000,131.1000 L316.000,199.1000 L616.000,199.1000 L616.000,215.1000 L616.000,231.1000 L616.000,499.1000 L716.000,499.1000 L716.000,515.1000 L716.000,532.000 L716.000,600.000 L816.000,600.000 L816.000,616.000 L816.000,632.000 L816.000,816.000 L784.000,816.000 ZM183.1000,332.000 L115.1000,332.000 L115.1000,600.000 L183.1000,600.000 L183.1000,332.000 ZM283.1000,632.000 L283.1000,131.1000 L215.1000,131.1000 L215.1000,700.000 L483.1000,700.000 L483.1000,632.000 L316.000,632.000 L283.1000,632.000 ZM316.000,499.1000 L483.1000,499.1000 L483.1000,332.000 L316.000,332.000 L316.000,499.1000 ZM584.000,231.1000 L316.000,231.1000 L316.000,300.000 L515.1000,300.000 L515.1000,316.000 L515.1000,332.000 L515.1000,499.1000 L584.000,499.1000 L584.000,231.1000 ZM684.000,532.000 L316.000,532.000 L316.000,600.000 L684.000,600.000 L684.000,532.000 Z"/>
</svg>