<svg
 id="top-start-photo" 
 xmlns="http://www.w3.org/2000/svg"
 xmlns:xlink="http://www.w3.org/1999/xlink"
 width="816px" height="816px">
<path fill-rule="evenodd" fill="#000013"
 d="M31.1000,816.000 L31.1000,632.000 L199.1000,632.000 L199.1000,700.000 L99.1000,700.000 L99.1000,716.000 L99.1000,732.000 L99.1000,816.000 L131.1000,816.000 L131.1000,732.000 L199.1000,732.000 L199.1000,816.000 L231.1000,816.000 L231.1000,632.000 L300.000,632.000 L300.000,816.000 L332.000,816.000 L332.000,732.000 L600.000,732.000 L616.000,732.000 L632.000,732.000 L632.000,632.000 L700.000,632.000 L716.000,632.000 L732.000,632.000 L732.000,332.000 L816.000,332.000 L816.000,300.000 L632.000,300.000 L632.000,231.1000 L816.000,231.1000 L816.000,199.1000 L732.000,199.1000 L732.000,131.1000 L816.000,131.1000 L816.000,99.1000 L700.000,99.1000 L700.000,115.1000 L700.000,131.1000 L700.000,199.1000 L632.000,199.1000 L632.000,31.1000 L816.000,31.1000 L816.000,-0.000 L600.000,-0.000 L600.000,15.1000 L600.000,31.1000 L600.000,99.1000 L499.1000,99.1000 L499.1000,131.1000 L499.1000,199.1000 L199.1000,199.1000 L199.1000,215.1000 L199.1000,231.1000 L199.1000,499.1000 L99.1000,499.1000 L99.1000,515.1000 L99.1000,532.000 L99.1000,600.000 L-0.000,600.000 L-0.000,616.000 L-0.000,632.000 L-0.000,816.000 L31.1000,816.000 ZM632.000,332.000 L700.000,332.000 L700.000,600.000 L632.000,600.000 L632.000,332.000 ZM532.000,632.000 L532.000,131.1000 L600.000,131.1000 L600.000,700.000 L332.000,700.000 L332.000,632.000 L499.1000,632.000 L532.000,632.000 ZM499.1000,499.1000 L332.000,499.1000 L332.000,332.000 L499.1000,332.000 L499.1000,499.1000 ZM231.1000,231.1000 L499.1000,231.1000 L499.1000,300.000 L300.000,300.000 L300.000,316.000 L300.000,332.000 L300.000,499.1000 L231.1000,499.1000 L231.1000,231.1000 ZM131.1000,532.000 L499.1000,532.000 L499.1000,600.000 L131.1000,600.000 L131.1000,532.000 Z"/>
</svg>