<?xml version="1.0" encoding="UTF-8"?>
<svg id="Layer_1" data-name="Layer 1" xmlns="http://www.w3.org/2000/svg" viewBox="0 0 149.66 25.41">
  <defs>
    <style>
      .cls-1, .cls-4 {
        fill: none;
      }

      .cls-1, .cls-2, .cls-4 {
        stroke: #000;
        stroke-miterlimit: 10;
      }

      .cls-2 {
        fill: #000;
      }
    </style>
  </defs>
  <rect class="cls-2" x="1.33" y="11.21" width="3" height="3" transform="translate(-8.16 5.72) rotate(-45)"/>
  <rect class="cls-2" x="145.33" y="11.21" width="3" height="3" transform="translate(34.02 107.55) rotate(-45)"/>
  <line class="cls-1" x1="14.83" y1="6.71" x2="62.83" y2="6.71"/>
  <line class="cls-1" x1="14.83" y1="18.71" x2="62.83" y2="18.71"/>
  <line class="cls-1" x1="86.83" y1="6.71" x2="134.83" y2="6.71"/>
  <line class="cls-1" x1="86.83" y1="18.71" x2="134.83" y2="18.71"/>
  <line class="cls-1" x1="86.83" y1="12.71" x2="146.83" y2="12.71"/>
  <line class="cls-1" x1="2.83" y1="12.71" x2="62.83" y2="12.71"/>
  <rect class="cls-4" x="66.34" y="4.22" width="16.97" height="16.97" transform="translate(12.93 56.63) rotate(-45)"/>
  <line class="cls-1" x1="86.83" y1="6.71" x2="74.83" y2="18.71"/>
  <line class="cls-1" x1="62.83" y1="6.71" x2="74.83" y2="18.71"/>
  <line class="cls-1" x1="74.83" y1="6.71" x2="86.83" y2="18.71"/>
  <line class="cls-1" x1="62.83" y1="18.71" x2="74.83" y2="6.71"/>
  <rect class="cls-4" x="70.59" y="8.46" width="8.49" height="8.49" transform="translate(12.93 56.63) rotate(-45)"/>
  <polygon class="cls-3" points="63.04 6.21 62.62 6.21 62.33 6.5 62.33 6.91 62.62 7.21 63.04 7.21 63.33 6.91 63.33 6.5 63.04 6.21"/>
  <polygon class="cls-3" points="63.04 18.21 62.62 18.21 62.33 18.5 62.33 18.91 62.62 19.21 63.04 19.21 63.33 18.91 63.33 18.5 63.04 18.21"/>
  <polygon class="cls-3" points="87.04 18.21 86.62 18.21 86.33 18.5 86.33 18.91 86.62 19.21 87.04 19.21 87.33 18.91 87.33 18.5 87.04 18.21"/>
  <polygon class="cls-3" points="87.04 6.21 86.62 6.21 86.33 6.5 86.33 6.91 86.62 7.21 87.04 7.21 87.33 6.91 87.33 6.5 87.04 6.21"/>
</svg>