<svg xmlns="http://www.w3.org/2000/svg" viewBox="0 -0.01 200 280.009" width="200px" height="280.009px">
  <path fill-rule="evenodd" fill="rgb(0, 0, 0)" d="M 200 139.99 L 199.994 -0.008 L 100 -0.01 L 0.01 -0.008 L 0 139.99 L 0.01 279.999 L 199.994 279.999 L 200 139.99 M 200 139.99 L 199.994 268.798 L 107.992 139.995 L 119.992 123.195 L 199.994 235.198 L 200 122.99 L 200 139.99 M 200 112.89 L 199.994 212.797 L 127.992 111.995 L 139.993 95.194 L 199.994 179.196 L 200 95.89 L 200 112.89 M 200 84.89 L 199.994 156.796 L 147.993 83.994 L 159.993 67.193 L 199.994 123.195 L 200 66.99 L 200 84.89 M 200 55.99 L 199.994 100.794 L 167.993 55.993 L 179.994 39.193 L 199.994 67.193 L 200 39.89 L 200 55.99 M 199.994 44.793 L 199.994 11.192 L 200 28.89 L 199.994 44.793 M 111.1 -0.01 L 100.002 16.807 L 88 -0.01 M 71.1 -0.01 L 100.002 39.208 L 128 -0.01 L 152 -0.01 L 100.002 72.808 L 47.1 -0.01 L 71.1 -0.01 M 31.1 -0.01 L 100.002 95.209 L 168 -0.01 L 192.005 0.007 L 100.002 128.81 L 7.999 0.007 L 31.1 -0.01 M 0.01 11.192 L 0.01 44.793 L 0 28.89 L 0.01 11.192 M 0 39.89 L 0.01 67.193 L 20.01 39.193 L 32.011 55.993 L 0.01 100.794 L 0 55.99 L 0 39.89 M 0 66.99 L 0.01 123.195 L 40.011 67.193 L 52.011 83.994 L 0.01 156.796 L 0 84.89 L 0 66.99 M 0 95.89 L 0.01 179.196 L 60.012 95.194 L 72.012 111.995 L 0.01 212.797 L 0 112.89 L 0 95.89 M 0 139.99 L 0 122.99 L 0.01 235.198 L 80.012 123.195 L 92.013 139.995 L 0.01 268.798 L 0 139.99 M 88 279.99 L 48.001 223.982 L 60.001 207.182 L 100.002 263.183 L 140.003 207.182 L 152.004 223.982 L 111.1 279.99 L 88 279.99 M 160.004 235.183 L 172.004 251.983 L 152 279.99 L 47.1 279.99 L 28 251.983 L 40 235.183 L 71.1 279.99 L 128 279.99 L 160.004 235.183 M 100.002 240.783 L 68.001 195.982 L 80.002 179.181 L 100.002 207.182 L 120.003 179.181 L 132.003 195.982 L 100.002 240.783 M 7.1 279.99 L 7.999 279.984 L 19.1 263.183 L 31.1 279.99 L 168 279.99 L 180.004 263.183 L 192.005 279.984 L 192 279.99 L 7.1 279.99" style="" transform="matrix(1, 0, 0, 1, 7.105427357601002e-15, 1.4210854715202004e-14)"/>
</svg>