<svg 
 xmlns="http://www.w3.org/2000/svg"
 xmlns:xlink="http://www.w3.org/1999/xlink"
 width="200px" height="280px">
<path fill-rule="evenodd"  fill="rgb(0, 0, 0)"
 d="M200.000,140.000 L199.994,279.998 L199.994,279.998 L100.000,280.000 L0.010,279.998 L-0.000,140.000 L0.010,-0.009 L199.994,-0.009 L199.994,-0.009 L200.000,140.000 ZM200.000,140.000 L199.994,11.192 L107.992,139.995 L119.992,156.795 L199.994,44.792 L200.000,157.000 L200.000,140.000 ZM200.000,167.1000 L199.994,67.193 L127.992,167.995 L139.993,184.796 L199.994,100.794 L200.000,184.1000 L200.000,167.1000 ZM200.000,195.1000 L199.994,123.194 L147.993,195.996 L159.993,212.797 L199.994,156.795 L200.000,213.000 L200.000,195.1000 ZM200.000,224.000 L199.994,179.196 L167.993,223.997 L179.994,240.797 L199.994,212.797 L200.000,240.1000 L200.000,224.000 ZM199.994,235.197 L187.994,251.998 L199.994,268.798 L200.000,251.1000 L199.994,235.197 ZM111.1000,280.000 L100.002,263.183 L88.000,280.000 M71.1000,280.000 L100.002,240.782 L128.000,280.000 L152.000,280.000 L100.002,207.182 L47.1000,280.000 L71.1000,280.000 ZM31.1000,280.000 L100.002,184.781 L168.000,280.000 L192.005,279.983 L100.002,151.180 L7.999,279.983 L31.1000,280.000 ZM0.010,268.798 L12.010,251.998 L0.010,235.197 L-0.000,251.1000 L0.010,268.798 ZM-0.000,240.1000 L0.010,212.797 L20.010,240.797 L32.011,223.997 L0.010,179.196 L-0.000,224.000 L-0.000,240.1000 ZM-0.000,213.000 L0.010,156.795 L40.011,212.797 L52.011,195.996 L0.010,123.194 L-0.000,195.1000 L-0.000,213.000 ZM-0.000,184.1000 L0.010,100.794 L60.012,184.796 L72.012,167.995 L0.010,67.193 L-0.000,167.1000 L-0.000,184.1000 ZM-0.000,140.000 L-0.000,157.000 L0.010,44.792 L80.012,156.795 L92.013,139.995 L0.010,11.192 L-0.000,140.000 ZM88.000,0.000 L48.001,56.008 L60.001,72.808 L100.002,16.807 L140.003,72.808 L152.004,56.008 L111.1000,0.000 L88.000,0.000 ZM160.004,44.807 L172.004,28.007 L152.000,0.000 L47.1000,0.000 L28.000,28.007 L40.000,44.807 L71.1000,0.000 L128.000,0.000 L160.004,44.807 ZM100.002,39.207 L68.001,84.008 L80.002,100.809 L100.002,72.808 L120.003,100.809 L132.003,84.008 L100.002,39.207 ZM100.002,95.209 L88.002,112.009 L100.002,128.809 L112.002,112.009 L100.002,95.209 ZM7.1000,0.000 L7.999,0.006 L19.1000,16.807 L31.1000,0.000 L168.000,0.000 L180.004,16.807 L192.005,0.006 L192.000,0.000 L7.1000,0.000 Z"/>
</svg>