<?xml version="1.0" encoding="UTF-8"?>
<svg id="Layer_1" data-name="Layer 1" xmlns="http://www.w3.org/2000/svg" viewBox="0 0 151.5 151.5">
  <defs>
    <style>
      .cls-1, .cls-2 {
        fill: none;
      }

      .cls-1, .cls-2, .cls-3 {
        stroke: #000;
        stroke-miterlimit: 10;
      }

      .cls-2 {
        stroke-width: 2px;
      }

      .cls-3 {
        fill: #000;
      }
    </style>
  </defs>
  <rect class="cls-2" x="1" y="1" width="24" height="24"/>
  <rect class="cls-1" x="7" y="34" width="18" height="60"/>
  <rect class="cls-1" x="34" y="7" width="60" height="18"/>
  <line class="cls-1" x1="16" y1="16" x2="40" y2="16"/>
  <line class="cls-1" x1="16" y1="16" x2="16" y2="40"/>
  <line class="cls-1" x1="34" y1="25" x2="34" y2="31"/>
  <line class="cls-1" x1="34" y1="28" x2="34" y2="34"/>
  <line class="cls-1" x1="25" y1="34" x2="34" y2="34"/>
  <line class="cls-1" x1="103" y1="7" x2="145" y2="7"/>
  <line class="cls-1" x1="7" y1="103" x2="7" y2="145"/>
  <line class="cls-1" x1="40" y1="1" x2="40" y2="52"/>
  <line class="cls-1" x1="1" y1="40" x2="52" y2="40"/>
  <rect class="cls-3" x="32.5" y="32.5" width="3" height="3"/>
  <rect class="cls-3" x="5.5" y="100" width="3" height="3"/>
  <rect class="cls-3" x="100" y="5.5" width="3" height="3"/>
  <rect class="cls-1" x="145" y="4" width="6" height="6"/>
  <rect class="cls-1" x="40" y="1" width="78" height="15"/>
  <rect class="cls-1" x="16" y="16" width="18" height="18"/>
  <rect class="cls-1" x="40" y="40" width="12" height="12"/>
  <rect class="cls-1" x="1" y="40" width="15" height="78"/>
  <rect class="cls-1" x="4" y="145" width="6" height="6"/>
</svg>